# xmcd
#
# Track frame offsets: 
#        150
#        19731
#        35606
#        52425
#        67522
#        92154
#        111821
#        132971
#        151668
#        181969
#        201248
#
# Disc length: 2911 seconds
#
# Revision: 0
# Processed by: cddbd v1.5.1PL0 Copyright (c) Steve Scherf et al.
# Submitted via: ExactAudioCopy v0.95a5
#
DISCID=900b5d0b
DTITLE=Nektar - Man In The Moon
DYEAR=1980
DGENRE=Progressive Rock
TTITLE0=Too Young To Die
TTITLE1=Angel
TTITLE2=Telephone
TTITLE3=Far Away
TTITLE4=Torraine
TTITLE5=Can't Stop You Now
TTITLE6=We
TTITLE7=You're Alone
TTITLE8=Man In The Moon
TTITLE9=Impossible Years (Too Young To Die)
TTITLE10=Straight Jacket
EXTD=
EXTT0=
EXTT1=
EXTT2=
EXTT3=
EXTT4=
EXTT5=
EXTT6=
EXTT7=
EXTT8=
EXTT9=
EXTT10=
PLAYORDER=
